<?xml version="1.0" encoding="UTF-8" standalone="no"?>
<!-- Created with Inkscape (http://www.inkscape.org/) -->

<svg
   xmlns:dc="http://purl.org/dc/elements/1.1/"
   xmlns:cc="http://creativecommons.org/ns#"
   xmlns:rdf="http://www.w3.org/1999/02/22-rdf-syntax-ns#"
   xmlns:svg="http://www.w3.org/2000/svg"
   xmlns="http://www.w3.org/2000/svg"
   xmlns:sodipodi="http://sodipodi.sourceforge.net/DTD/sodipodi-0.dtd"
   xmlns:inkscape="http://www.inkscape.org/namespaces/inkscape"
   width="698.70081"
   height="648.51965"
   viewBox="0 0 184.8649 171.58854"
   version="1.1"
   id="svg1957"
   inkscape:version="0.92.4 (5da689c313, 2019-01-14)"
   sodipodi:docname="header-vectore-ilg.svg">
  <defs
     id="defs1951">
    <marker
       inkscape:stockid="DotL"
       orient="auto"
       refY="0"
       refX="0"
       id="marker1829"
       style="overflow:visible"
       inkscape:isstock="true">
      <path
         inkscape:connector-curvature="0"
         id="path1827"
         d="m -2.5,-1 c 0,2.76 -2.24,5 -5,5 -2.76,0 -5,-2.24 -5,-5 0,-2.76 2.24,-5 5,-5 2.76,0 5,2.24 5,5 z"
         style="fill:#d6d7e9;fill-opacity:0.74468085;fill-rule:evenodd;stroke:#d6d7e9;stroke-width:1.00000003pt;stroke-opacity:0.74468085"
         transform="matrix(0.8,0,0,0.8,5.92,0.8)" />
    </marker>
    <marker
       inkscape:stockid="DotL"
       orient="auto"
       refY="0"
       refX="0"
       id="DotL"
       style="overflow:visible"
       inkscape:isstock="true">
      <path
         inkscape:connector-curvature="0"
         id="path1528"
         d="m -2.5,-1 c 0,2.76 -2.24,5 -5,5 -2.76,0 -5,-2.24 -5,-5 0,-2.76 2.24,-5 5,-5 2.76,0 5,2.24 5,5 z"
         style="fill:#d6d7e9;fill-opacity:0.74468085;fill-rule:evenodd;stroke:#d6d7e9;stroke-width:1.00000003pt;stroke-opacity:0.74468085"
         transform="matrix(0.8,0,0,0.8,5.92,0.8)" />
    </marker>
    <marker
       inkscape:stockid="DotL"
       orient="auto"
       refY="0"
       refX="0"
       id="marker1783"
       style="overflow:visible"
       inkscape:isstock="true">
      <path
         inkscape:connector-curvature="0"
         id="path1781"
         d="m -2.5,-1 c 0,2.76 -2.24,5 -5,5 -2.76,0 -5,-2.24 -5,-5 0,-2.76 2.24,-5 5,-5 2.76,0 5,2.24 5,5 z"
         style="fill:#d6d7e9;fill-opacity:0.74468085;fill-rule:evenodd;stroke:#d6d7e9;stroke-width:1.00000003pt;stroke-opacity:0.74468085"
         transform="matrix(0.8,0,0,0.8,5.92,0.8)" />
    </marker>
  </defs>
  <sodipodi:namedview
     id="base"
     pagecolor="#ffffff"
     bordercolor="#666666"
     borderopacity="1.0"
     inkscape:pageopacity="0.0"
     inkscape:pageshadow="2"
     inkscape:zoom="0.7"
     inkscape:cx="424.85226"
     inkscape:cy="349.0324"
     inkscape:document-units="px"
     inkscape:current-layer="layer1"
     showgrid="false"
     units="px"
     inkscape:window-width="1440"
     inkscape:window-height="847"
     inkscape:window-x="-8"
     inkscape:window-y="-8"
     inkscape:window-maximized="1" />
  <metadata
     id="metadata1954">
    <rdf:RDF>
      <cc:Work
         rdf:about="">
        <dc:format>image/svg+xml</dc:format>
        <dc:type
           rdf:resource="http://purl.org/dc/dcmitype/StillImage" />
        <dc:title></dc:title>
      </cc:Work>
    </rdf:RDF>
  </metadata>
  <g
     inkscape:label="Layer 1"
     inkscape:groupmode="layer"
     id="layer1"
     transform="translate(0,-125.41418)">
    <rect
       y="143.39807"
       x="8.7131386"
       height="135.80562"
       width="167.13231"
       id="rect4442"
       style="opacity:1;fill:#222e54;fill-opacity:1;stroke:none;stroke-width:4.01003885;stroke-miterlimit:4;stroke-dasharray:none;stroke-opacity:1;paint-order:stroke fill markers" />
    <path
       style="fill:#4e3cd9;fill-opacity:1;stroke:none;stroke-width:0.36736524px;stroke-linecap:butt;stroke-linejoin:miter;stroke-opacity:1"
       d="M 8.7131133,279.20367 175.84537,143.39774 132.8496,279.20367 Z"
       id="path1463"
       inkscape:connector-curvature="0" />
    <path
       inkscape:connector-curvature="0"
       style="fill:#4e3cd9;fill-opacity:1;stroke:none;stroke-width:0.36736524px;stroke-linecap:butt;stroke-linejoin:miter;stroke-opacity:1"
       d="M 8.7131913,143.39796 V 279.20402 L 51.709293,143.39796 Z"
       id="path1453" />
    <path
       style="fill:none;stroke:#d6d7e9;stroke-width:0.77435786;stroke-linecap:butt;stroke-linejoin:miter;stroke-miterlimit:4;stroke-dasharray:none;stroke-opacity:0.74468085;marker-start:url(#marker1829);marker-mid:url(#DotL);marker-end:url(#marker1783);paint-order:normal"
       d="M 128.54083,292.13 180.15413,134.78019 4.4043411,287.82122 56.018067,130.47164"
       id="path1465"
       inkscape:connector-curvature="0"
       sodipodi:nodetypes="cccc" />
  </g>
</svg>
